<?xml version="1.0" encoding="UTF-8"?>
<!DOCTYPE svg PUBLIC "-//W3C//DTD SVG 1.1//EN" "http://www.w3.org/Graphics/SVG/1.1/DTD/svg11.dtd">
<svg version="1.2" width="30mm" height="100mm" viewBox="0 0 3000 10000" preserveAspectRatio="xMidYMid" fill-rule="evenodd" stroke-width="28.222" stroke-linejoin="round" xmlns="http://www.w3.org/2000/svg" xmlns:ooo="http://xml.openoffice.org/svg/export" xmlns:xlink="http://www.w3.org/1999/xlink" xmlns:presentation="http://sun.com/xmlns/staroffice/presentation" xmlns:smil="http://www.w3.org/2001/SMIL20/" xmlns:anim="urn:oasis:names:tc:opendocument:xmlns:animation:1.0" xml:space="preserve">
 <defs class="ClipPathGroup">
  <clipPath id="presentation_clip_path" clipPathUnits="userSpaceOnUse">
   <rect x="0" y="0" width="3000" height="10000"/>
  </clipPath>
  <clipPath id="presentation_clip_path_shrink" clipPathUnits="userSpaceOnUse">
   <rect x="3" y="10" width="2994" height="9980"/>
  </clipPath>
 </defs>
 <defs class="TextShapeIndex">
  <g ooo:slide="id1" ooo:id-list="id3 id4"/>
 </defs>
 <defs class="EmbeddedBulletChars">
  <g id="bullet-char-template-57356" transform="scale(0.00048828125,-0.00048828125)">
   <path d="M 580,1141 L 1163,571 580,0 -4,571 580,1141 Z"/>
  </g>
  <g id="bullet-char-template-57354" transform="scale(0.00048828125,-0.00048828125)">
   <path d="M 8,1128 L 1137,1128 1137,0 8,0 8,1128 Z"/>
  </g>
  <g id="bullet-char-template-10146" transform="scale(0.00048828125,-0.00048828125)">
   <path d="M 174,0 L 602,739 174,1481 1456,739 174,0 Z M 1358,739 L 309,1346 659,739 1358,739 Z"/>
  </g>
  <g id="bullet-char-template-10132" transform="scale(0.00048828125,-0.00048828125)">
   <path d="M 2015,739 L 1276,0 717,0 1260,543 174,543 174,936 1260,936 717,1481 1274,1481 2015,739 Z"/>
  </g>
  <g id="bullet-char-template-10007" transform="scale(0.00048828125,-0.00048828125)">
   <path d="M 0,-2 C -7,14 -16,27 -25,37 L 356,567 C 262,823 215,952 215,954 215,979 228,992 255,992 264,992 276,990 289,987 310,991 331,999 354,1012 L 381,999 492,748 772,1049 836,1024 860,1049 C 881,1039 901,1025 922,1006 886,937 835,863 770,784 769,783 710,716 594,584 L 774,223 C 774,196 753,168 711,139 L 727,119 C 717,90 699,76 672,76 641,76 570,178 457,381 L 164,-76 C 142,-110 111,-127 72,-127 30,-127 9,-110 8,-76 1,-67 -2,-52 -2,-32 -2,-23 -1,-13 0,-2 Z"/>
  </g>
  <g id="bullet-char-template-10004" transform="scale(0.00048828125,-0.00048828125)">
   <path d="M 285,-33 C 182,-33 111,30 74,156 52,228 41,333 41,471 41,549 55,616 82,672 116,743 169,778 240,778 293,778 328,747 346,684 L 369,508 C 377,444 397,411 428,410 L 1163,1116 C 1174,1127 1196,1133 1229,1133 1271,1133 1292,1118 1292,1087 L 1292,965 C 1292,929 1282,901 1262,881 L 442,47 C 390,-6 338,-33 285,-33 Z"/>
  </g>
  <g id="bullet-char-template-9679" transform="scale(0.00048828125,-0.00048828125)">
   <path d="M 813,0 C 632,0 489,54 383,161 276,268 223,411 223,592 223,773 276,916 383,1023 489,1130 632,1184 813,1184 992,1184 1136,1130 1245,1023 1353,916 1407,772 1407,592 1407,412 1353,268 1245,161 1136,54 992,0 813,0 Z"/>
  </g>
  <g id="bullet-char-template-8226" transform="scale(0.00048828125,-0.00048828125)">
   <path d="M 346,457 C 273,457 209,483 155,535 101,586 74,649 74,723 74,796 101,859 155,911 209,963 273,989 346,989 419,989 480,963 531,910 582,859 608,796 608,723 608,648 583,586 532,535 482,483 420,457 346,457 Z"/>
  </g>
  <g id="bullet-char-template-8211" transform="scale(0.00048828125,-0.00048828125)">
   <path d="M -4,459 L 1135,459 1135,606 -4,606 -4,459 Z"/>
  </g>
  <g id="bullet-char-template-61548" transform="scale(0.00048828125,-0.00048828125)">
   <path d="M 173,740 C 173,903 231,1043 346,1159 462,1274 601,1332 765,1332 928,1332 1067,1274 1183,1159 1299,1043 1357,903 1357,740 1357,577 1299,437 1183,322 1067,206 928,148 765,148 601,148 462,206 346,322 231,437 173,577 173,740 Z"/>
  </g>
 </defs>
 <g>
  <g id="id2" class="Master_Slide">
   <g id="bg-id2" class="Background"/>
   <g id="bo-id2" class="BackgroundObjects"/>
  </g>
 </g>
 <g class="SlideGroup">
  <g>
   <g id="container-id1">
    <g id="id1" class="Slide" clip-path="url(#presentation_clip_path)">
     <g class="Page">
      <g class="com.sun.star.drawing.CustomShape">
       <g id="id3">
        <rect class="BoundingBox" stroke="none" fill="none" x="975" y="974" width="1052" height="8053"/>
        <path fill="rgb(255,255,255)" stroke="none" d="M 1166,1000 L 1167,1000 C 1138,1000 1109,1008 1083,1022 1058,1037 1037,1058 1022,1083 1008,1109 1000,1138 1000,1167 L 1000,8834 1000,8834 C 1000,8863 1008,8892 1022,8918 1037,8943 1058,8964 1083,8979 1109,8993 1138,9001 1167,9001 L 1834,9000 1834,9001 C 1863,9001 1892,8993 1918,8979 1943,8964 1964,8943 1979,8918 1993,8892 2001,8863 2001,8834 L 2001,1166 2001,1167 2001,1167 C 2001,1138 1993,1109 1979,1083 1964,1058 1943,1037 1918,1022 1892,1008 1863,1000 1834,1000 L 1166,1000 Z"/>
        <path fill="none" stroke="rgb(0,0,0)" stroke-width="50" stroke-linejoin="round" d="M 1166,1000 L 1167,1000 C 1138,1000 1109,1008 1083,1022 1058,1037 1037,1058 1022,1083 1008,1109 1000,1138 1000,1167 L 1000,8834 1000,8834 C 1000,8863 1008,8892 1022,8918 1037,8943 1058,8964 1083,8979 1109,8993 1138,9001 1167,9001 L 1834,9000 1834,9001 C 1863,9001 1892,8993 1918,8979 1943,8964 1964,8943 1979,8918 1993,8892 2001,8863 2001,8834 L 2001,1166 2001,1167 2001,1167 C 2001,1138 1993,1109 1979,1083 1964,1058 1943,1037 1918,1022 1892,1008 1863,1000 1834,1000 L 1166,1000 Z"/>
       </g>
      </g>
      <g class="com.sun.star.drawing.CustomShape">
       <g id="id4">
        <rect class="BoundingBox" stroke="none" fill="none" x="1249" y="4749" width="504" height="504"/>
        <path fill="rgb(255,0,0)" stroke="none" d="M 1751,5001 C 1751,5044 1739,5088 1717,5126 1695,5164 1664,5195 1626,5217 1588,5239 1544,5251 1500,5251 1457,5251 1413,5239 1375,5217 1337,5195 1306,5164 1284,5126 1262,5088 1250,5044 1250,5001 1250,4957 1262,4913 1284,4875 1306,4837 1337,4806 1375,4784 1413,4762 1457,4750 1500,4750 1544,4750 1588,4762 1626,4784 1664,4806 1695,4837 1717,4875 1739,4913 1751,4957 1751,5001 L 1751,5001 Z"/>
        <path fill="none" stroke="rgb(255,0,0)" d="M 1751,5001 C 1751,5044 1739,5088 1717,5126 1695,5164 1664,5195 1626,5217 1588,5239 1544,5251 1500,5251 1457,5251 1413,5239 1375,5217 1337,5195 1306,5164 1284,5126 1262,5088 1250,5044 1250,5001 1250,4957 1262,4913 1284,4875 1306,4837 1337,4806 1375,4784 1413,4762 1457,4750 1500,4750 1544,4750 1588,4762 1626,4784 1664,4806 1695,4837 1717,4875 1739,4913 1751,4957 1751,5001 Z"/>
       </g>
      </g>
     </g>
    </g>
   </g>
  </g>
 </g>
</svg>