<svg xmlns="http://www.w3.org/2000/svg" xmlns:xlink="http://www.w3.org/1999/xlink" viewBox="0 0 163.09 163.09"><defs><style>.cls-1{fill:url(#名称未設定グラデーション_19);}.cls-2{fill:url(#名称未設定グラデーション_38);}.cls-3{fill:url(#名称未設定グラデーション_38-2);}.cls-4{fill:url(#名称未設定グラデーション_19-2);}.cls-5{fill:url(#名称未設定グラデーション_38-3);}.cls-6{fill:url(#名称未設定グラデーション_38-4);}.cls-7{fill:url(#名称未設定グラデーション_19-3);}.cls-8{fill:url(#名称未設定グラデーション_38-5);}.cls-9{fill:#006934;}.cls-10{fill:#e60012;}.cls-11{fill:url(#名称未設定グラデーション_151);}.cls-12{fill:url(#名称未設定グラデーション_151-2);}.cls-13{fill:url(#名称未設定グラデーション_151-3);}.cls-14{fill:url(#名称未設定グラデーション_151-4);}.cls-15{fill:url(#名称未設定グラデーション_38-6);}</style><linearGradient id="名称未設定グラデーション_19" x1="123.08" y1="138.72" x2="123.08" y2="50.49" gradientUnits="userSpaceOnUse"><stop offset="0" stop-color="#f0e900"/><stop offset="1" stop-color="#8fc31f"/></linearGradient><linearGradient id="名称未設定グラデーション_38" x1="116.11" y1="77.91" x2="116.11" y2="14.62" gradientUnits="userSpaceOnUse"><stop offset="0" stop-color="#005326"/><stop offset="0.5" stop-color="#22ac38"/><stop offset="1" stop-color="#8fc31f"/></linearGradient><linearGradient id="名称未設定グラデーション_38-2" x1="93.91" y1="156.12" x2="139.16" y2="96.07" xlink:href="#名称未設定グラデーション_38"/><linearGradient id="名称未設定グラデーション_19-2" x1="81.55" y1="148.56" x2="81.55" y2="14.57" xlink:href="#名称未設定グラデーション_19"/><linearGradient id="名称未設定グラデーション_38-3" x1="81.55" y1="45.93" x2="81.55" y2="148.78" xlink:href="#名称未設定グラデーション_38"/><linearGradient id="名称未設定グラデーション_38-4" x1="69.38" y1="156.27" x2="24" y2="96.04" xlink:href="#名称未設定グラデーション_38"/><linearGradient id="名称未設定グラデーション_19-3" x1="40.03" y1="138.72" x2="40.03" y2="50.49" xlink:href="#名称未設定グラデーション_19"/><linearGradient id="名称未設定グラデーション_38-5" x1="47" y1="77.96" x2="47" y2="14.62" xlink:href="#名称未設定グラデーション_38"/><linearGradient id="名称未設定グラデーション_151" x1="38.66" y1="82.86" x2="38.66" y2="66.16" gradientUnits="userSpaceOnUse"><stop offset="0" stop-color="#c9caca"/><stop offset="0.75" stop-color="#f7f8f8"/></linearGradient><linearGradient id="名称未設定グラデーション_151-2" x1="31.59" y1="112.99" x2="31.59" y2="102.58" xlink:href="#名称未設定グラデーション_151"/><linearGradient id="名称未設定グラデーション_151-3" x1="131.45" y1="112.99" x2="131.45" y2="102.58" xlink:href="#名称未設定グラデーション_151"/><linearGradient id="名称未設定グラデーション_151-4" x1="125.32" y1="82.86" x2="125.32" y2="66.16" xlink:href="#名称未設定グラデーション_151"/><linearGradient id="名称未設定グラデーション_38-6" x1="81.55" y1="163.09" x2="81.55" y2="0" xlink:href="#名称未設定グラデーション_38"/></defs><g id="レイヤー_2" data-name="レイヤー 2"><g id="配置"><g id="_1-1" data-name="1-1"><path class="cls-1" d="M148.58,78.23c0,1.13.08,2.29.08,3.45a66.84,66.84,0,0,1-8.22,32.2c3-6.32,2.7-12.84-.61-16.91-.31-.39-3.81-4.56-9-4.24-4.75.28-9.16,4.16-10.85,9.88-.08.27-.15.55-.22.83-3.84,14.31-10.2,27-18,35.28,6.2-9.38,3.17-21.83.07-32.56-2.26-7.88-4.42-16-4.25-24.24.19-9.68,3-20.4,11.17-26.43a27.77,27.77,0,0,1,12.4-4.84,21.52,21.52,0,0,1,7.51.41c10.57,2.51,18.93,13.27,20,26.85C148.57,78,148.58,78.12,148.58,78.23Z"/><path class="cls-2" d="M148.56,77.91c-1.05-13.58-9.41-24.34-20-26.85a21.52,21.52,0,0,0-7.51-.41c-5.78-22.22-20.25-35.06-37.42-36A67.11,67.11,0,0,1,148.56,77.91Z"/><path class="cls-3" d="M119.73,103.44c.07-.28.14-.56.22-.83,1.69-5.72,6.1-9.6,10.85-9.88,5.22-.32,8.72,3.85,9,4.24,3.31,4.07,3.57,10.59.61,16.91,0,0,0,0,0,0a67.07,67.07,0,0,1-56.32,34.81,23.57,23.57,0,0,0,12.19-4.43,21.88,21.88,0,0,0,5.38-5.57h0C109.53,130.42,115.89,117.75,119.73,103.44Z"/><path class="cls-4" d="M88.14,38.07a3.19,3.19,0,0,0,2.08.77A3.25,3.25,0,1,0,87,35.6,3.2,3.2,0,0,0,88.14,38.07ZM75,38.07a3.2,3.2,0,0,0,1.17-2.47,3.26,3.26,0,1,0-3.25,3.24A3.19,3.19,0,0,0,75,38.07Zm6.58-4.73a3.25,3.25,0,1,0-3.26-3.25,3.26,3.26,0,0,0,3.26,3.25Zm39.52,17.31a27.77,27.77,0,0,0-12.4,4.84c-8.13,6-11,16.75-11.17,26.43-.17,8.26,2,16.36,4.25,24.24,3.1,10.73,6.13,23.18-.07,32.56h0c-5.16,5.43-11,9-17.13,9.83a19.55,19.55,0,0,0,14.68-27.71h0c-4.77-11.1-12-21.56-13.45-33.81-.7-5.9,1.47-15.66,2.85-21a30.88,30.88,0,0,1,2.11-5.59,9.87,9.87,0,0,0,.94-3.51h0a10,10,0,0,1,9.21-4.61,10.88,10.88,0,0,0-6-3,10.7,10.7,0,0,0-5.36.57A10.13,10.13,0,0,0,72.36,60.32,33,33,0,0,1,74.5,66c1.38,5.38,3.55,15.14,2.84,21-1.44,12.25-8.67,22.71-13.44,33.81a19.55,19.55,0,0,0,14.68,27.71c-6.17-.86-12-4.4-17.13-9.83h0c-6.21-9.38-3.17-21.83-.07-32.56,2.26-7.88,4.42-16,4.25-24.24-.19-9.68-3-20.4-11.17-26.43A27.77,27.77,0,0,0,42,50.65c5.78-22.22,20.25-35.06,37.42-36l1.08,0c.33,0,.68,0,1,0s.69,0,1,0l1.08,0C100.82,15.59,115.29,28.43,121.07,50.65Z"/><path class="cls-5" d="M99.21,120.85a19.55,19.55,0,0,1-14.68,27.71c-.32,0-.65.09-1,.12s-.65.06-1,.07-.67,0-1,0-.67,0-1,0-.66,0-1-.07-.66-.08-1-.12A19.55,19.55,0,0,1,63.9,120.85c4.77-11.1,12-21.56,13.44-33.81.71-5.9-1.46-15.66-2.84-21a33,33,0,0,0-2.14-5.68A10.13,10.13,0,0,1,89.55,49.84a9.79,9.79,0,0,1,2,4.67,9.65,9.65,0,0,1,.08,2.39,9.87,9.87,0,0,1-.94,3.51A30.88,30.88,0,0,0,88.6,66c-1.38,5.38-3.55,15.14-2.85,21,1.45,12.25,8.68,22.71,13.45,33.81Z"/><path class="cls-6" d="M66.83,144.3a23.49,23.49,0,0,0,12.53,4.44,67,67,0,0,1-54.13-30.58,3.37,3.37,0,0,1-.21-.31c-.78-1.21-1.51-2.45-2.21-3.71,0,0,0,0,0,0-3.08-6.39-2.86-13,.48-17.14.32-.39,3.82-4.56,9-4.24,4.63.27,8.92,4,10.71,9.42a.93.93,0,0,1,0,.13c.14.54.29,1.08.44,1.62,3.85,14.12,10.15,26.61,17.92,34.82h0A21.88,21.88,0,0,0,66.83,144.3Z"/><path class="cls-7" d="M65.61,81.92c.17,8.26-2,16.36-4.25,24.24-3.1,10.73-6.14,23.18.07,32.56-7.77-8.21-14.07-20.7-17.92-34.82a14.29,14.29,0,0,0-.44-1.62.93.93,0,0,0,0-.13C41.24,96.68,37,93,32.32,92.73c-5.22-.32-8.72,3.85-9,4.24-3.34,4.12-3.56,10.75-.48,17.14a66.8,66.8,0,0,1-8.35-32.43c0-1.16,0-2.32.08-3.45a2.28,2.28,0,0,1,0-.27c1-13.6,9.4-24.39,20-26.9A21.52,21.52,0,0,1,42,50.65a27.77,27.77,0,0,1,12.4,4.84C62.57,61.52,65.42,72.24,65.61,81.92Z"/><path class="cls-8" d="M79.46,14.62c-17.17,1-31.64,13.81-37.42,36a21.52,21.52,0,0,0-7.51.41C24,53.57,15.59,64.36,14.55,78A67.11,67.11,0,0,1,79.46,14.62Z"/><path class="cls-9" d="M149.89,78.13h0c0-.1,0-.2,0-.29h0v0A68.4,68.4,0,0,0,83.74,13.31h0l-1,0a18.9,18.9,0,0,0-2.13,0l-1.09,0h0A68.4,68.4,0,0,0,13.24,77.83v0c0,.12,0,.24,0,.3h0c-.08,1.14-.11,2.31-.08,3.49v0h0a68.36,68.36,0,0,0,8.42,32.86l.07.14a.16.16,0,0,0,0,.07h0l0,0a27.61,27.61,0,0,0,2.24,3.76l.21.31h0A68.44,68.44,0,0,0,79.3,150.06h0a3.49,3.49,0,0,0,.44,0l1.15,0h1.32c.31,0,.67,0,1,0h0c.16,0,.32,0,.55,0l.33,0h0a68.73,68.73,0,0,0,54.75-31.11h0a27.11,27.11,0,0,0,2.64-4.43h0A68.43,68.43,0,0,0,150,81.71h0A35.36,35.36,0,0,0,149.89,78.13Zm-6.12-17.71a25.76,25.76,0,0,0-14.89-10.65,22.8,22.8,0,0,0-6.82-.52c-3.78-13.7-11-24.11-20.34-30.13A66.59,66.59,0,0,1,143.77,60.42ZM79.52,15.94l1.09,0c.31,0,.62,0,.94,0s.64,0,1,0l1,0c16.83,1,30.14,13.48,35.83,33.62a29.55,29.55,0,0,0-11.53,4.86C98,61.75,96.32,74.78,96.18,81.89c-.17,8.35,1.94,16.42,4.3,24.64,3.14,10.89,5.75,22.23.47,30.87h-.24a20.64,20.64,0,0,0-.31-17.13h0c-1.41-3.28-3-6.55-4.64-9.7-3.78-7.51-7.69-15.27-8.69-23.69-.67-5.7,1.48-15.33,2.82-20.56a30,30,0,0,1,2-5.35,11.28,11.28,0,0,0,1-3.53,8.67,8.67,0,0,1,7.9-3.84l3.57.25-2.55-2.51A12.3,12.3,0,0,0,95.11,48a12,12,0,0,0-5.12.37,11.51,11.51,0,0,0-5.86-3.43l5.21-6.2A3.24,3.24,0,1,0,87,35.6,3.1,3.1,0,0,0,87.31,37L82.87,42.3V33.05a3.25,3.25,0,1,0-2.64,0V42.3L75.8,37a3.1,3.1,0,0,0,.34-1.42,3.33,3.33,0,1,0-2.37,3.1L79,44.92a11.44,11.44,0,0,0-7.82,16,31.65,31.65,0,0,1,2.06,5.45C74.56,71.56,76.71,81.2,76,86.89c-1,8.42-4.9,16.19-8.68,23.7-1.6,3.17-3.25,6.44-4.64,9.69a20.59,20.59,0,0,0-.31,17.11h-.24c-5.28-8.64-2.67-20,.47-30.87,2.36-8.21,4.47-16.28,4.3-24.63-.14-7.11-1.84-20.14-11.7-27.46A29.42,29.42,0,0,0,43.7,49.56C49.39,29.42,62.7,16.89,79.52,15.94ZM91.63,50.65a9.39,9.39,0,0,1,3.08-.08,9.54,9.54,0,0,1,2.5.75,11.52,11.52,0,0,0-2.32.91,11.05,11.05,0,0,0-2.15,1.45A10.84,10.84,0,0,0,91.63,50.65ZM61.39,19.12c-9.39,6-16.56,16.43-20.34,30.13a22.8,22.8,0,0,0-6.82.52A25.74,25.74,0,0,0,19.34,60.41,66.58,66.58,0,0,1,61.39,19.12Zm-42,84.12a65.94,65.94,0,0,1-3.63-21.56c0-1.14,0-2.28.08-3.45,0,0,0-.07,0-.17,1-12.73,8.77-23.3,19-25.72a20.43,20.43,0,0,1,7-.38h0a26.32,26.32,0,0,1,11.77,4.59c9,6.65,10.51,18.76,10.64,25.39.16,8-1.9,15.84-4.2,23.85-2.47,8.55-4.59,17.38-3.1,25.28a92,92,0,0,1-12.21-27.51,15,15,0,0,0-.43-1.62,1,1,0,0,0-.06-.2c-1.95-6-6.62-10-11.89-10.33-5.86-.34-9.72,4.21-10.14,4.73A13.51,13.51,0,0,0,19.4,103.24Zm6.94,14.21,0-.07c-.05-.06-.17-.24-.17-.24-.73-1.15-1.45-2.36-2.14-3.6h0c-2.82-5.86-2.69-12,.32-15.74.13-.16,3.3-4,7.94-3.75,4.09.24,7.9,3.62,9.53,8.51v0l0,.07q.21.83.45,1.65h0c3.92,14.38,10.27,26.77,17.89,35h0l.26.28.33.5h.05A23.72,23.72,0,0,0,66,145.36l.52.36A65.86,65.86,0,0,1,26.34,117.45Zm58,29.8c-.29,0-.59.09-.94.12l-.91.07H80.61c-.31,0-.6,0-.9-.06h0c-.31,0-.61-.07-.89-.11a18.33,18.33,0,0,1-15.45-18,18,18,0,0,1,1.79-7.87c1.38-3.22,3-6.46,4.59-9.6,3.88-7.71,7.9-15.69,8.94-24.57.74-6.12-1.48-16.11-2.87-21.53a34.58,34.58,0,0,0-2.22-5.9A8.8,8.8,0,0,1,75.7,49.48a8.66,8.66,0,0,1,5.84-2.23,9.42,9.42,0,0,1,1.06.06,8.84,8.84,0,0,1,5.91,3.34,8.83,8.83,0,0,1,1,9.19,32.65,32.65,0,0,0-2.19,5.83c-1.39,5.41-3.61,15.41-2.88,21.53,1,8.88,5.06,16.85,9,24.56,1.58,3.14,3.21,6.39,4.59,9.61l0,0a17.87,17.87,0,0,1,1.77,7.82A18.33,18.33,0,0,1,84.34,147.25Zm55-34.11h0l-.08.18a66.22,66.22,0,0,1-42.66,32.39l.48-.35a23.56,23.56,0,0,0,5.28-5.32h0l.33-.5.26-.28h0c7.63-8.23,14-20.62,17.91-35h0l0-.18c0-.06,0-.13,0-.19h0l0-.1c.06-.25.12-.5.2-.76,1.5-5.09,5.38-8.68,9.66-8.93,4.61-.29,7.79,3.59,7.93,3.75C141.79,101.47,142,107.33,139.32,113.14Zm4.4-9.91a13.61,13.61,0,0,0-2.86-7.09c-.42-.52-4.29-5.08-10.13-4.73-5.39.32-10.23,4.67-12,10.81-.09.3-.17.61-.23.88-2.91,10.8-7.18,20.45-12.34,28,1.49-7.9-.63-16.73-3.1-25.28-2.3-8-4.36-15.86-4.2-23.85.13-6.63,1.68-18.74,10.64-25.4A26.35,26.35,0,0,1,121.22,52h0a20.48,20.48,0,0,1,7.05.38c10.19,2.42,18,13,19,25.69a1.42,1.42,0,0,1,0,.26c.05,1.1.08,2.24.08,3.39A66.18,66.18,0,0,1,143.72,103.23Z"/><path class="cls-10" d="M92.14,55.5c0-.35,0-.7-.1-1.06a10.29,10.29,0,0,0-1.74-4.37,10.44,10.44,0,0,1,3-.45,9.5,9.5,0,0,1,1.51.11,10.39,10.39,0,0,1,4.81,2.08,10.48,10.48,0,0,0-7.51,3.69Z"/><circle class="cls-11" cx="38.66" cy="74.51" r="8.35"/><path class="cls-9" d="M38.66,66.16a8.35,8.35,0,1,1-8.35,8.35,8.35,8.35,0,0,1,8.35-8.35m0-2.64a11,11,0,1,0,11,11,11,11,0,0,0-11-11Z"/><circle class="cls-12" cx="31.59" cy="107.79" r="5.2"/><path class="cls-9" d="M31.59,102.58a5.21,5.21,0,1,1-5.2,5.21,5.21,5.21,0,0,1,5.2-5.21m0-2.64a7.85,7.85,0,1,0,7.85,7.85,7.85,7.85,0,0,0-7.85-7.85Z"/><circle class="cls-13" cx="131.45" cy="107.79" r="5.2"/><path class="cls-9" d="M131.45,102.58a5.21,5.21,0,1,1-5.2,5.21,5.21,5.21,0,0,1,5.2-5.21m0-2.64a7.85,7.85,0,1,0,7.85,7.85,7.85,7.85,0,0,0-7.85-7.85Z"/><circle class="cls-14" cx="125.32" cy="74.51" r="8.35"/><path class="cls-9" d="M125.32,66.16A8.35,8.35,0,1,1,117,74.51a8.35,8.35,0,0,1,8.35-8.35m0-2.64a11,11,0,1,0,11,11,11,11,0,0,0-11-11Z"/><path class="cls-15" d="M81.55,163.09a81.55,81.55,0,1,1,81.54-81.54A81.64,81.64,0,0,1,81.55,163.09Zm0-157.81a76.27,76.27,0,1,0,76.26,76.27A76.35,76.35,0,0,0,81.55,5.28Z"/></g></g></g></svg>