<svg xmlns="http://www.w3.org/2000/svg" xmlns:xlink="http://www.w3.org/1999/xlink" viewBox="0 0 163.09 163.09"><defs><style>.cls-1{fill:url(#名称未設定グラデーション_19);}.cls-2{fill:url(#名称未設定グラデーション_38);}.cls-3{fill:url(#名称未設定グラデーション_38-2);}.cls-4{fill:url(#名称未設定グラデーション_38-3);}.cls-5{fill:url(#名称未設定グラデーション_38-4);}.cls-6{fill:url(#名称未設定グラデーション_626);}.cls-7{fill:url(#名称未設定グラデーション_38-5);}.cls-8{fill:url(#名称未設定グラデーション_19-2);}.cls-9{fill:url(#名称未設定グラデーション_19-3);}.cls-10{fill:url(#名称未設定グラデーション_38-6);}.cls-11{fill:url(#名称未設定グラデーション_151);}.cls-12{fill:url(#名称未設定グラデーション_151-2);}.cls-13{fill:url(#名称未設定グラデーション_151-3);}.cls-14{fill:url(#名称未設定グラデーション_151-4);}.cls-15{fill:#e60012;}.cls-16{fill:url(#名称未設定グラデーション_38-7);}</style><linearGradient id="名称未設定グラデーション_19" x1="123.07" y1="128.84" x2="123.07" y2="52.05" gradientUnits="userSpaceOnUse"><stop offset="0" stop-color="#f0e900"/><stop offset="1" stop-color="#8fc31f"/></linearGradient><linearGradient id="名称未設定グラデーション_38" x1="101.11" y1="146.31" x2="138.07" y2="97.27" gradientUnits="userSpaceOnUse"><stop offset="0" stop-color="#005326"/><stop offset="0.5" stop-color="#22ac38"/><stop offset="1" stop-color="#8fc31f"/></linearGradient><linearGradient id="名称未設定グラデーション_38-2" x1="123.52" y1="57.49" x2="123.52" y2="20.47" xlink:href="#名称未設定グラデーション_38"/><linearGradient id="名称未設定グラデーション_38-3" x1="81.55" y1="47.01" x2="81.55" y2="147.22" xlink:href="#名称未設定グラデーション_38"/><linearGradient id="名称未設定グラデーション_38-4" x1="81.55" y1="47.48" x2="81.55" y2="146.76" xlink:href="#名称未設定グラデーション_38"/><linearGradient id="名称未設定グラデーション_626" x1="91.62" y1="51.85" x2="97.2" y2="51.85" gradientUnits="userSpaceOnUse"><stop offset="0.5" stop-color="#e5004f"/><stop offset="1" stop-color="#ef857d"/></linearGradient><linearGradient id="名称未設定グラデーション_38-5" x1="62" y1="146.34" x2="25.02" y2="97.27" xlink:href="#名称未設定グラデーション_38"/><linearGradient id="名称未設定グラデーション_19-2" x1="40.02" y1="128.82" x2="40.02" y2="52.05" xlink:href="#名称未設定グラデーション_19"/><linearGradient id="名称未設定グラデーション_19-3" x1="81.55" y1="131.96" x2="81.55" y2="16.13" xlink:href="#名称未設定グラデーション_19"/><linearGradient id="名称未設定グラデーション_38-6" x1="39.58" y1="57.49" x2="39.58" y2="20.46" xlink:href="#名称未設定グラデーション_38"/><linearGradient id="名称未設定グラデーション_151" x1="131.45" y1="112.76" x2="131.45" y2="102.35" gradientUnits="userSpaceOnUse"><stop offset="0" stop-color="#c9caca"/><stop offset="0.75" stop-color="#f7f8f8"/></linearGradient><linearGradient id="名称未設定グラデーション_151-2" x1="31.64" y1="112.76" x2="31.64" y2="102.35" xlink:href="#名称未設定グラデーション_151"/><linearGradient id="名称未設定グラデーション_151-3" x1="125.31" y1="82.63" x2="125.31" y2="65.92" xlink:href="#名称未設定グラデーション_151"/><linearGradient id="名称未設定グラデーション_151-4" x1="38.71" y1="82.63" x2="38.71" y2="65.92" xlink:href="#名称未設定グラデーション_151"/><linearGradient id="名称未設定グラデーション_38-7" x1="81.55" y1="163.09" x2="81.55" y2="0" xlink:href="#名称未設定グラデーション_38"/></defs><g id="レイヤー_2" data-name="レイヤー 2"><g id="配置"><g id="_1-2" data-name="1-2"><path class="cls-1" d="M106.87,128.84c.87-7.66-1.29-16.06-3.41-23.41-2.3-8-4.34-15.82-4.18-23.71.13-6.54,1.66-18.5,10.45-25a25.61,25.61,0,0,1,11.55-4.5,21.6,21.6,0,0,1,2.4-.14,19.65,19.65,0,0,1,4.47.52c10,2.36,17.65,12.76,18.62,25.27a1.55,1.55,0,0,1,0,.22c.05,1.13.08,2.26.08,3.38a65.9,65.9,0,0,1-.69,9.53,63.71,63.71,0,0,1-2.33,10.12,13.44,13.44,0,0,0-2.63-5.48c-.4-.5-4.13-4.92-9.89-4.92l-.63,0c-5.58.33-10.58,4.81-12.45,11.14-.09.3-.18.62-.25.9A93.58,93.58,0,0,1,106.87,128.84Z"/><path class="cls-2" d="M98.66,144.46a23.83,23.83,0,0,0,3.91-4.19h0l.18-.21.34-.5.21-.2.13-.14v0c7.56-8.22,13.87-20.54,17.79-34.76h0l.1-.37.09-.4c.08-.3.14-.53.22-.78,1.45-4.92,5.16-8.37,9.24-8.62h.45c4.17,0,7.05,3.56,7.08,3.59,2.87,3.54,3,9.24.45,14.88l-.07.16A65.65,65.65,0,0,1,98.66,144.46Z"/><path class="cls-3" d="M142.26,57.49A25.53,25.53,0,0,0,129,49.08a22.82,22.82,0,0,0-5.22-.59c-.45,0-.91,0-1.36,0-3.43-12.17-9.48-21.79-17.63-28.06A66.2,66.2,0,0,1,142.26,57.49Z"/><path class="cls-4" d="M99.77,129a18.35,18.35,0,0,1-15.44,18c-.29,0-.59.08-.94.11a9.06,9.06,0,0,1-.91.07c-.63,0-1.24,0-1.87,0a7.88,7.88,0,0,1-.86-.07h-.09l-.89-.11A18.34,18.34,0,0,1,64.5,135.39,17.8,17.8,0,0,1,63.32,129a18.1,18.1,0,0,1,1.78-7.86c1.39-3.23,3-6.47,4.6-9.6,3.89-7.72,7.89-15.69,9-24.57.73-6.12-1.49-16.12-2.88-21.53a34.26,34.26,0,0,0-2.22-5.9,8.81,8.81,0,0,1,8-12.53,7.9,7.9,0,0,1,1.07.07,8.83,8.83,0,0,1,5.9,3.33,8.64,8.64,0,0,1,1.82,6.15,5.3,5.3,0,0,1-.1.8,8.27,8.27,0,0,1-.72,2.24,33.52,33.52,0,0,0-2.19,5.84C85.93,70.84,83.7,80.85,84.43,87c1,8.87,5.07,16.85,8.94,24.56,1.59,3.14,3.22,6.38,4.61,9.61l0,0A17.9,17.9,0,0,1,99.77,129Z"/><path class="cls-5" d="M81.55,146.76c-.31,0-.61,0-.91,0s-.57,0-.83-.06h-.15l-.58-.08-.25,0a17.86,17.86,0,0,1-13.9-11.34A17.35,17.35,0,0,1,63.79,129a17.66,17.66,0,0,1,1.73-7.66c1.4-3.25,3-6.47,4.59-9.59C74,104,78,96,79.11,87c.74-6.17-1.49-16.24-2.89-21.7a34.46,34.46,0,0,0-2.25-6,8.31,8.31,0,0,1-.77-3.51A8.4,8.4,0,0,1,76,49.59a8.36,8.36,0,0,1,6.55-2.05,8.34,8.34,0,0,1,5.59,3.16,8.16,8.16,0,0,1,1.67,3.84,8.26,8.26,0,0,1,.06,2,6.22,6.22,0,0,1-.1.77,8,8,0,0,1-.67,2.12,33.15,33.15,0,0,0-2.23,5.92C85.46,70.77,83.23,80.83,84,87c1.06,9,5.09,17,9,24.69,1.51,3,3.2,6.33,4.61,9.61l.06.11A17.51,17.51,0,0,1,99.3,129a17.87,17.87,0,0,1-15,17.56l-.2,0-.71.08c-.3,0-.59.05-.89.06Z"/><path class="cls-6" d="M97.2,51.09a11.1,11.1,0,0,0-4.46,2.35,11.19,11.19,0,0,0-1.12-3,9.72,9.72,0,0,1,3.09-.07A9.11,9.11,0,0,1,97.2,51.09Z"/><path class="cls-7" d="M64.46,144.48A65.05,65.05,0,0,1,26.72,117l0-.08-.13-.18c-.87-1.37-1.53-2.5-2.12-3.57l0,0c-2.73-5.69-2.63-11.67.26-15.24.31-.37,3.12-3.6,7.09-3.6h.46c3.93.24,7.59,3.53,9.11,8.2l0,.07c.08.34.16.65.25,1l.17.64A103.26,103.26,0,0,0,49.38,124,67.23,67.23,0,0,0,59.65,139.2h0l.14.15.23.24.44.67h.06A23.78,23.78,0,0,0,64.46,144.48Z"/><path class="cls-8" d="M56.22,128.82a93.31,93.31,0,0,1-11-25.62,17,17,0,0,0-.48-1.73,1,1,0,0,0,0-.18c-2-6.11-6.84-10.27-12.27-10.58-.23,0-.45,0-.66,0-5.75,0-9.48,4.42-9.88,4.92a13.5,13.5,0,0,0-2.64,5.49,65.27,65.27,0,0,1-3-19.66c0-1.11,0-2.23.08-3.42v-.17c.95-12.52,8.61-22.92,18.62-25.29a19.19,19.19,0,0,1,4.44-.51,22.14,22.14,0,0,1,2.43.14,25.67,25.67,0,0,1,11.55,4.5c8.81,6.54,10.33,18.49,10.45,25C64,88.85,62.28,96,60.45,102.56l-.21.75c-.2.7-.4,1.42-.61,2.12C57.51,112.79,55.36,121.16,56.22,128.82Z"/><path class="cls-9" d="M102.67,132a21.19,21.19,0,0,0-1.86-12.11l-.09-.2c-1.4-3.21-3-6.4-4.55-9.49C92.4,102.67,88.51,95,87.52,86.6c-.49-4.09.29-7.74,1-12.37.63-4.1,1.15-8.26,2.62-12.16a15.69,15.69,0,0,1,3.12-5.38c2-2.12,5-2.94,7.85-3.06l4.3-.21-3.86-3a13.49,13.49,0,0,0-9.27-3.16,12.17,12.17,0,0,0-3,.58A11.43,11.43,0,0,0,85,44.41L89.5,39a3,3,0,0,0,.71.08,3.73,3.73,0,1,0-3.46-2.36l-3.42,4.07V33.1a3.71,3.71,0,1,0-3.57,0v7.66l-3.42-4.07a3.68,3.68,0,0,0,.26-1.35,3.72,3.72,0,1,0-3.72,3.71,3,3,0,0,0,.71-.08l4.55,5.43a11.76,11.76,0,0,0-4.52,2.51,11.89,11.89,0,0,0-2.89,13.91,33,33,0,0,1,2,5.37C74.1,71.42,76.23,81,75.56,86.6c-1,8.32-4.86,16-8.61,23.49l-.2.39c-1.53,3.06-3.12,6.23-4.48,9.38A21.14,21.14,0,0,0,60.21,129a20.55,20.55,0,0,0,.21,2.94c-2.08-7.66.11-16.74,2.64-25.52q.44-1.48.84-3c1.9-6.83,3.64-14.2,3.49-21.8-.14-7.21-1.88-20.4-11.89-27.83A29.5,29.5,0,0,0,44.28,49C50,29.34,63.13,17.1,79.54,16.17l1.07,0h1.9l1,0C100,17.1,113.12,29.34,118.82,49a29.5,29.5,0,0,0-11.23,4.86,22,22,0,0,0-1.79,1.46c-8.49,7.66-10,19.81-10.1,26.37-.17,8.42,2,16.52,4.33,24.77,2.16,7.49,4.36,16.09,3.1,23.46C103,130.59,102.85,131.28,102.67,132Z"/><path class="cls-10" d="M20.83,57.49a66.27,66.27,0,0,1,37.49-37c-8.14,6.28-14.2,15.91-17.63,28.07-.45,0-.91,0-1.36,0a22.82,22.82,0,0,0-5.22.59A25.53,25.53,0,0,0,20.83,57.49Z"/><path class="cls-11" d="M131.45,102.35a5.21,5.21,0,1,1-5.2,5.2A5.2,5.2,0,0,1,131.45,102.35Z"/><path class="cls-12" d="M31.64,102.35a5.21,5.21,0,1,1-5.2,5.2A5.2,5.2,0,0,1,31.64,102.35Z"/><circle class="cls-13" cx="125.31" cy="74.27" r="8.35"/><circle class="cls-14" cx="38.71" cy="74.27" r="8.35"/><path class="cls-15" d="M93,55.26a9.77,9.77,0,0,0-.11-1.06,10.27,10.27,0,0,0-1.73-4.37,10.45,10.45,0,0,1,3-.46,9.61,9.61,0,0,1,1.51.12,10.3,10.3,0,0,1,4.8,2.08,10.4,10.4,0,0,0-4.36,1.17A10.53,10.53,0,0,0,93,55.26Z"/><path class="cls-16" d="M81.55,163.09a81.55,81.55,0,1,1,81.54-81.54A81.64,81.64,0,0,1,81.55,163.09Zm0-157.81a76.27,76.27,0,1,0,76.26,76.27A76.35,76.35,0,0,0,81.55,5.28Z"/></g></g></g></svg>