<svg xmlns="http://www.w3.org/2000/svg" xmlns:xlink="http://www.w3.org/1999/xlink" viewBox="0 0 288.25 103.05"><defs><style>.cls-1{fill:url(#名称未設定グラデーション_38);}.cls-2{fill:url(#名称未設定グラデーション_38-2);}.cls-3{fill:url(#名称未設定グラデーション_38-3);}.cls-4{fill:url(#名称未設定グラデーション_19);}.cls-5{fill:url(#名称未設定グラデーション_38-4);}.cls-6{fill:url(#名称未設定グラデーション_38-5);}.cls-7{fill:url(#名称未設定グラデーション_19-2);}.cls-8{fill:url(#名称未設定グラデーション_38-6);}.cls-9{fill:url(#名称未設定グラデーション_38-7);}.cls-10{fill:url(#名称未設定グラデーション_19-3);}.cls-11{fill:url(#名称未設定グラデーション_38-8);}.cls-12{fill:#00913a;}.cls-13{fill:#e60012;}.cls-14{fill:url(#名称未設定グラデーション_151);}.cls-15{fill:url(#名称未設定グラデーション_151-2);}.cls-16{fill:url(#名称未設定グラデーション_151-3);}.cls-17{fill:url(#名称未設定グラデーション_151-4);}.cls-18{fill:url(#名称未設定グラデーション_38-9);}</style><linearGradient id="名称未設定グラデーション_38" x1="162.7" y1="66.99" x2="162.7" y2="26.14" gradientUnits="userSpaceOnUse"><stop offset="0" stop-color="#005326"/><stop offset="0.5" stop-color="#22ac38"/><stop offset="1" stop-color="#8fc31f"/></linearGradient><linearGradient id="名称未設定グラデーション_38-2" x1="207.99" y1="82.61" x2="207.99" y2="20.44" xlink:href="#名称未設定グラデーション_38"/><linearGradient id="名称未設定グラデーション_38-3" x1="257.97" y1="66.99" x2="257.97" y2="34.55" xlink:href="#名称未設定グラデーション_38"/><linearGradient id="名称未設定グラデーション_19" x1="77.76" y1="87.64" x2="77.76" y2="31.9" gradientUnits="userSpaceOnUse"><stop offset="0" stop-color="#f0e900"/><stop offset="1" stop-color="#8fc31f"/></linearGradient><linearGradient id="名称未設定グラデーション_38-4" x1="73.36" y1="49.23" x2="73.36" y2="9.24" xlink:href="#名称未設定グラデーション_38"/><linearGradient id="名称未設定グラデーション_38-5" x1="59.33" y1="98.64" x2="87.93" y2="60.7" xlink:href="#名称未設定グラデーション_38"/><linearGradient id="名称未設定グラデーション_19-2" x1="51.53" y1="93.86" x2="51.53" y2="9.21" xlink:href="#名称未設定グラデーション_19"/><linearGradient id="名称未設定グラデーション_38-6" x1="51.53" y1="29.02" x2="51.53" y2="94" xlink:href="#名称未設定グラデーション_38"/><linearGradient id="名称未設定グラデーション_38-7" x1="43.84" y1="98.73" x2="15.16" y2="60.68" xlink:href="#名称未設定グラデーション_38"/><linearGradient id="名称未設定グラデーション_19-3" x1="25.29" y1="87.64" x2="25.29" y2="31.9" xlink:href="#名称未設定グラデーション_19"/><linearGradient id="名称未設定グラデーション_38-8" x1="29.7" y1="49.25" x2="29.7" y2="9.24" xlink:href="#名称未設定グラデーション_38"/><linearGradient id="名称未設定グラデーション_151" x1="24.43" y1="52.35" x2="24.43" y2="41.8" gradientUnits="userSpaceOnUse"><stop offset="0" stop-color="#c9caca"/><stop offset="0.75" stop-color="#f7f8f8"/></linearGradient><linearGradient id="名称未設定グラデーション_151-2" x1="19.96" y1="71.39" x2="19.96" y2="64.82" xlink:href="#名称未設定グラデーション_151"/><linearGradient id="名称未設定グラデーション_151-3" x1="83.06" y1="71.39" x2="83.06" y2="64.82" xlink:href="#名称未設定グラデーション_151"/><linearGradient id="名称未設定グラデーション_151-4" x1="79.18" y1="52.35" x2="79.18" y2="41.8" xlink:href="#名称未設定グラデーション_151"/><linearGradient id="名称未設定グラデーション_38-9" x1="51.52" y1="103.05" x2="51.52" y2="0" xlink:href="#名称未設定グラデーション_38"/></defs><g id="レイヤー_2" data-name="レイヤー 2"><g id="配置"><g id="_2-1" data-name="2-1"><path class="cls-1" d="M189.25,40.5h-.12L162.94,63.87h-.48L136.32,40.5h-.18V67H124.73V26.14h9.55l28.36,25.29h.12l28.35-25.29h9.55V67H189.25Z"/><path class="cls-2" d="M194.78,73.6a69.85,69.85,0,0,0,7.27.54c6.3,0,8.34-1.8,8.34-6.31V34.55H221V69.63c0,8.41-5.83,13-17.06,13a50.92,50.92,0,0,1-9.61-.9C194.48,79.13,194.6,76.18,194.78,73.6Zm20.9-53.16c4.33,0,6,1.74,6,4.38s-1.68,4.51-6,4.51-6-1.81-6-4.51S211.36,20.44,215.68,20.44Z"/><path class="cls-3" d="M266.26,50.53v.24l22,15.44V67h-15.2L258,56.24,242.89,67H227.7v-.78l22-15.44v-.24l-21.68-15.2v-.78h15.25L258,45.06l14.66-10.51h15.26v.78Z"/><path class="cls-4" d="M93.87,49.43c0,.71.06,1.44.06,2.17A42.21,42.21,0,0,1,88.73,72c1.87-4,1.71-8.11-.38-10.68a7.34,7.34,0,0,0-5.71-2.68c-3,.18-5.78,2.63-6.85,6.24-.05.17-.1.35-.14.52-2.43,9-6.44,17.05-11.41,22.29,3.92-5.92,2-13.79.05-20.57C62.86,62.1,61.5,57,61.6,51.76c.12-6.11,1.92-12.89,7.06-16.7A17.63,17.63,0,0,1,76.5,32a13.79,13.79,0,0,1,4.74.26c6.68,1.58,12,8.39,12.62,17A1.27,1.27,0,0,1,93.87,49.43Z"/><path class="cls-5" d="M93.86,49.23c-.66-8.58-5.94-15.39-12.62-17A13.79,13.79,0,0,0,76.5,32C72.85,18,63.7,9.85,52.85,9.24A42.39,42.39,0,0,1,93.86,49.23Z"/><path class="cls-6" d="M75.65,65.35c0-.17.09-.35.14-.52,1.07-3.61,3.85-6.06,6.85-6.24a7.34,7.34,0,0,1,5.71,2.68C90.44,63.84,90.6,68,88.73,72a0,0,0,0,1,0,0A42.41,42.41,0,0,1,53.13,94a14.9,14.9,0,0,0,7.7-2.8,13.71,13.71,0,0,0,3.4-3.51v0C69.21,82.4,73.22,74.39,75.65,65.35Z"/><path class="cls-7" d="M55.69,24.06a2,2,0,0,0,1.31.48,2.06,2.06,0,1,0-1.31-.48Zm-8.33,0a2,2,0,0,0,.75-1.57,2.06,2.06,0,1,0-2.06,2.05A2,2,0,0,0,47.36,24.06Zm4.17-3A2.06,2.06,0,1,0,49.47,19a2.06,2.06,0,0,0,2.06,2.06ZM76.5,32a17.63,17.63,0,0,0-7.84,3.06c-5.14,3.81-6.94,10.59-7.06,16.7C61.5,57,62.86,62.1,64.29,67.07c1.95,6.78,3.87,14.65-.05,20.57v0c-3.26,3.42-6.92,5.66-10.82,6.2a12.35,12.35,0,0,0,10.47-12.2,12.19,12.19,0,0,0-1.2-5.3h0c-3-7-7.58-13.63-8.5-21.36-.44-3.73.93-9.9,1.8-13.3a20,20,0,0,1,1.33-3.53,6.41,6.41,0,0,0,.6-2.22h0A6.33,6.33,0,0,1,63.75,33,6.85,6.85,0,0,0,60,31.13a6.67,6.67,0,0,0-3.39.36,6.4,6.4,0,0,0-10.86,6.62,21,21,0,0,1,1.35,3.59c.87,3.4,2.24,9.57,1.8,13.3-.92,7.73-5.48,14.34-8.5,21.36a12.35,12.35,0,0,0,9.28,17.5c-3.9-.54-7.56-2.78-10.82-6.2a0,0,0,0,0,0,0c-3.92-5.92-2-13.79,0-20.57,1.43-5,2.79-10.09,2.68-15.31-.12-6.11-1.92-12.89-7.05-16.7A17.63,17.63,0,0,0,26.56,32C30.21,18,39.36,9.85,50.2,9.24l.69,0h1.28l.68,0C63.7,9.85,72.85,18,76.5,32Z"/><path class="cls-8" d="M62.68,76.36a12.19,12.19,0,0,1,1.2,5.3,12.35,12.35,0,0,1-10.47,12.2l-.62.08-.63,0H50.89l-.62,0-.62-.08a12.35,12.35,0,0,1-9.28-17.5c3-7,7.58-13.63,8.5-21.36.44-3.73-.93-9.9-1.8-13.3a21,21,0,0,0-1.35-3.59,6.4,6.4,0,0,1,10.86-6.62,6.24,6.24,0,0,1,1.28,2.95,6.44,6.44,0,0,1-.55,3.73A20,20,0,0,0,56,41.7c-.87,3.4-2.24,9.57-1.8,13.3.92,7.73,5.48,14.34,8.5,21.36Z"/><path class="cls-9" d="M42.22,91.17A14.91,14.91,0,0,0,50.14,94a42.37,42.37,0,0,1-34.2-19.32l-.13-.2c-.49-.77-1-1.55-1.4-2.34v0c-1.95-4-1.81-8.23.3-10.83a7.34,7.34,0,0,1,5.71-2.68c2.92.17,5.64,2.5,6.77,6a.31.31,0,0,1,0,.08c.09.35.19.69.28,1,2.43,8.92,6.41,16.81,11.32,22a0,0,0,0,1,0,0A13.83,13.83,0,0,0,42.22,91.17Z"/><path class="cls-10" d="M41.45,51.76C41.56,57,40.2,62.1,38.77,67.07c-2,6.78-3.88,14.65,0,20.57-4.91-5.18-8.89-13.07-11.32-22a8.67,8.67,0,0,0-.28-1,.31.31,0,0,0,0-.08c-1.13-3.45-3.85-5.78-6.77-6a7.34,7.34,0,0,0-5.71,2.68c-2.11,2.6-2.25,6.79-.3,10.83A42.13,42.13,0,0,1,9.13,51.6c0-.73,0-1.46,0-2.17,0-.06,0-.12,0-.18.66-8.59,5.94-15.41,12.63-17A13.79,13.79,0,0,1,26.56,32a17.63,17.63,0,0,1,7.84,3.06C39.53,38.87,41.33,45.65,41.45,51.76Z"/><path class="cls-11" d="M50.2,9.24C39.36,9.85,30.21,18,26.56,32a13.79,13.79,0,0,0-4.74.26c-6.69,1.58-12,8.4-12.63,17A42.4,42.4,0,0,1,50.2,9.24Z"/><path class="cls-12" d="M94.71,49.36h0a1.09,1.09,0,0,1,0-.18h0A43.22,43.22,0,0,0,52.91,8.41h0l-.66,0c-.46,0-.95,0-1.35,0l-.69,0h0A43.24,43.24,0,0,0,8.36,49.18h0a1.49,1.49,0,0,0,0,.19h0c0,.72-.07,1.46-.06,2.2h0v0h0a43.44,43.44,0,0,0,5.32,20.77l.05.09a.08.08,0,0,1,0,0h0v0a18,18,0,0,0,1.42,2.38c0,.07.09.13.13.19h0A43.24,43.24,0,0,0,50.1,94.81h2.54l.35,0h.2a43.45,43.45,0,0,0,34.6-19.66h0a16.63,16.63,0,0,0,1.66-2.8h0a43.26,43.26,0,0,0,5.29-20.73h0C94.78,50.86,94.76,50.1,94.71,49.36ZM90.84,38.17a16.31,16.31,0,0,0-9.41-6.72,14.4,14.4,0,0,0-4.31-.33c-2.39-8.66-6.92-15.24-12.85-19A42.1,42.1,0,0,1,90.84,38.17Zm-40.6-28.1.69,0h1.22l.66,0c10.63.6,19,8.52,22.64,21.24a18.57,18.57,0,0,0-7.29,3.08c-6.23,4.63-7.3,12.86-7.39,17.35C60.66,57,62,62.11,63.49,67.31c2,6.88,3.63,14,.29,19.51h-.15A13,13,0,0,0,63.43,76h0c-.89-2.08-1.93-4.14-2.94-6.13-2.38-4.75-4.85-9.65-5.48-15-.43-3.6.93-9.69,1.78-13a18.73,18.73,0,0,1,1.27-3.38,6.89,6.89,0,0,0,.64-2.23,5.43,5.43,0,0,1,2-1.82,5.51,5.51,0,0,1,3-.61L66,34l-1.61-1.59a7.79,7.79,0,0,0-4.25-2.14,7.69,7.69,0,0,0-3.23.23,7.35,7.35,0,0,0-3.7-2.16l3.29-3.92a2,2,0,1,0-1.5-2,2.09,2.09,0,0,0,.21.9l-2.8,3.33V20.88A2,2,0,0,0,53.58,19a2.06,2.06,0,1,0-2.89,1.88v5.83l-2.8-3.33a2,2,0,0,0,.22-.9,2.11,2.11,0,1,0-1.5,2l3.29,3.93a7.2,7.2,0,0,0-5.61,7,7.32,7.32,0,0,0,.67,3,20.72,20.72,0,0,1,1.3,3.44c.85,3.31,2.21,9.39,1.78,13-.63,5.32-3.1,10.23-5.49,15-1,2-2,4.07-2.93,6.13a13,13,0,0,0-1.28,5.65,13.17,13.17,0,0,0,1.08,5.16h-.15c-3.33-5.47-1.69-12.63.3-19.51,1.49-5.19,2.82-10.28,2.72-15.56C42.2,47.25,41.12,39,34.9,34.39a18.65,18.65,0,0,0-7.29-3.08C31.2,18.59,39.61,10.67,50.24,10.07ZM57.9,32A6,6,0,0,1,59.84,32a5.75,5.75,0,0,1,1.58.48A6.58,6.58,0,0,0,60,33a6.94,6.94,0,0,0-1.35.92A7.38,7.38,0,0,0,57.9,32ZM38.79,12.08c-5.94,3.8-10.46,10.38-12.85,19a14.38,14.38,0,0,0-4.31.33,16.21,16.21,0,0,0-9.41,6.72A42.08,42.08,0,0,1,38.79,12.08ZM12.26,65.23A41.72,41.72,0,0,1,10,51.6c0-.71,0-1.43.06-2.17a.54.54,0,0,1,0-.11c.61-8,5.54-14.72,12-16.25a13,13,0,0,1,4.45-.24h0a16.64,16.64,0,0,1,7.44,2.9c5.66,4.2,6.64,11.86,6.72,16,.1,5-1.2,10-2.66,15.07-1.55,5.4-2.9,11-2,16A58,58,0,0,1,28.3,65.43c-.09-.38-.18-.72-.28-1a.68.68,0,0,0,0-.13c-1.23-3.77-4.18-6.33-7.51-6.52a8.2,8.2,0,0,0-6.41,3A8.57,8.57,0,0,0,12.26,65.23Zm4.38,9,0,0L16.51,74c-.46-.72-.92-1.49-1.35-2.27h0c-1.78-3.7-1.7-7.6.2-9.95a6.55,6.55,0,0,1,5-2.37c2.59.15,5,2.29,6,5.38v0l0,0c.08.35.18.7.28,1h0C29.17,75,33.18,82.79,38,88h0l.17.17.21.32h0a15,15,0,0,0,3.34,3.36l.33.23A41.6,41.6,0,0,1,16.64,74.2ZM53.29,93l-.6.07-.57,0H50.93l-.56,0h0L49.78,93a11.52,11.52,0,0,1-8.64-16.36c.88-2,1.91-4.08,2.9-6.06,2.46-4.87,5-9.91,5.66-15.52.46-3.87-.94-10.19-1.82-13.61a21.34,21.34,0,0,0-1.41-3.73A5.51,5.51,0,0,1,46,35.42a5.57,5.57,0,0,1,1.87-4.16,5.49,5.49,0,0,1,3.69-1.41,5,5,0,0,1,.67,0A5.58,5.58,0,0,1,55.92,32a5.47,5.47,0,0,1,1.15,3.88,5.26,5.26,0,0,1-.51,1.93,20.34,20.34,0,0,0-1.39,3.68c-.88,3.42-2.28,9.74-1.82,13.6C54,60.71,56.55,65.74,59,70.62c1,2,2,4,2.91,6.06l0,0A11.36,11.36,0,0,1,63,81.65,11.59,11.59,0,0,1,53.29,93ZM88,71.48h0L88,71.6A41.83,41.83,0,0,1,61,92.06l.31-.22a14.93,14.93,0,0,0,3.33-3.36h0l.21-.32.16-.17h0c4.83-5.2,8.83-13,11.32-22.14h0l0-.11a.5.5,0,0,1,0-.12h0l0-.07c0-.15.08-.31.13-.47,1-3.22,3.4-5.49,6.11-5.65a6.54,6.54,0,0,1,5,2.37C89.59,64.11,89.71,67.82,88,71.48Zm2.77-6.26A8.51,8.51,0,0,0,89,60.74a8.16,8.16,0,0,0-6.4-3c-3.41.2-6.46,2.94-7.61,6.82-.06.19-.11.39-.15.56a58.13,58.13,0,0,1-7.79,17.67c.94-5-.4-10.57-2-16-1.45-5.06-2.75-10-2.65-15.07.08-4.18,1.06-11.84,6.72-16a16.57,16.57,0,0,1,7.43-2.9h0a12.7,12.7,0,0,1,4.45.24c6.44,1.53,11.37,8.2,12,16.23a.72.72,0,0,1,0,.17c0,.69,0,1.41,0,2.13A41.65,41.65,0,0,1,90.8,65.22Z"/><path class="cls-13" d="M58.22,35.07c0-.22,0-.45-.07-.67a6.54,6.54,0,0,0-1.09-2.76A6.5,6.5,0,0,1,59,31.35a6,6,0,0,1,1,.07,6.61,6.61,0,0,1,3,1.31,6.71,6.71,0,0,0-2.76.75A6.47,6.47,0,0,0,58.22,35.07Z"/><circle class="cls-14" cx="24.43" cy="47.08" r="5.28"/><path class="cls-12" d="M24.43,41.8a5.28,5.28,0,1,1-5.28,5.28,5.27,5.27,0,0,1,5.28-5.28m0-1.67a6.95,6.95,0,1,0,6.94,6.95,7,7,0,0,0-6.94-6.95Z"/><circle class="cls-15" cx="19.96" cy="68.1" r="3.29"/><path class="cls-12" d="M20,64.81a3.29,3.29,0,1,1-3.29,3.29A3.29,3.29,0,0,1,20,64.81m0-1.66a5,5,0,1,0,5,4.95,5,5,0,0,0-5-4.95Z"/><circle class="cls-16" cx="83.06" cy="68.1" r="3.29"/><path class="cls-12" d="M83.06,64.81a3.29,3.29,0,1,1-3.29,3.29,3.29,3.29,0,0,1,3.29-3.29m0-1.66a5,5,0,1,0,5,4.95,5,5,0,0,0-5-4.95Z"/><circle class="cls-17" cx="79.18" cy="47.08" r="5.28"/><path class="cls-12" d="M79.18,41.8a5.28,5.28,0,1,1-5.28,5.28,5.28,5.28,0,0,1,5.28-5.28m0-1.67a6.95,6.95,0,1,0,6.95,6.95,7,7,0,0,0-6.95-6.95Z"/><path class="cls-18" d="M51.52,103.05A51.53,51.53,0,1,1,103,51.52,51.58,51.58,0,0,1,51.52,103.05Zm0-99.71A48.19,48.19,0,1,0,99.71,51.52,48.23,48.23,0,0,0,51.52,3.34Z"/></g></g></g></svg>