<svg xmlns="http://www.w3.org/2000/svg" xmlns:xlink="http://www.w3.org/1999/xlink" viewBox="0 0 288.25 103.05"><defs><style>.cls-1{fill:url(#名称未設定グラデーション_38);}.cls-2{fill:url(#名称未設定グラデーション_38-2);}.cls-3{fill:url(#名称未設定グラデーション_38-3);}.cls-4{fill:url(#名称未設定グラデーション_19);}.cls-5{fill:url(#名称未設定グラデーション_38-4);}.cls-6{fill:url(#名称未設定グラデーション_38-5);}.cls-7{fill:url(#名称未設定グラデーション_38-6);}.cls-8{fill:url(#名称未設定グラデーション_38-7);}.cls-9{fill:url(#名称未設定グラデーション_626);}.cls-10{fill:url(#名称未設定グラデーション_38-8);}.cls-11{fill:url(#名称未設定グラデーション_19-2);}.cls-12{fill:url(#名称未設定グラデーション_19-3);}.cls-13{fill:url(#名称未設定グラデーション_38-9);}.cls-14{fill:url(#名称未設定グラデーション_151);}.cls-15{fill:url(#名称未設定グラデーション_151-2);}.cls-16{fill:url(#名称未設定グラデーション_151-3);}.cls-17{fill:url(#名称未設定グラデーション_151-4);}.cls-18{fill:#e60012;}.cls-19{fill:url(#名称未設定グラデーション_38-10);}</style><linearGradient id="名称未設定グラデーション_38" x1="162.69" y1="66.99" x2="162.69" y2="26.14" gradientUnits="userSpaceOnUse"><stop offset="0" stop-color="#005326"/><stop offset="0.5" stop-color="#22ac38"/><stop offset="1" stop-color="#8fc31f"/></linearGradient><linearGradient id="名称未設定グラデーション_38-2" x1="207.99" y1="82.61" x2="207.99" y2="20.44" xlink:href="#名称未設定グラデーション_38"/><linearGradient id="名称未設定グラデーション_38-3" x1="257.97" y1="66.99" x2="257.97" y2="34.55" xlink:href="#名称未設定グラデーション_38"/><linearGradient id="名称未設定グラデーション_19" x1="77.76" y1="81.4" x2="77.76" y2="32.89" gradientUnits="userSpaceOnUse"><stop offset="0" stop-color="#f0e900"/><stop offset="1" stop-color="#8fc31f"/></linearGradient><linearGradient id="名称未設定グラデーション_38-4" x1="63.89" y1="92.44" x2="87.24" y2="61.46" xlink:href="#名称未設定グラデーション_38"/><linearGradient id="名称未設定グラデーション_38-5" x1="78.04" y1="36.33" x2="78.04" y2="12.93" xlink:href="#名称未設定グラデーション_38"/><linearGradient id="名称未設定グラデーション_38-6" x1="51.52" y1="29.7" x2="51.52" y2="93.02" xlink:href="#名称未設定グラデーション_38"/><linearGradient id="名称未設定グラデーション_38-7" x1="51.52" y1="30" x2="51.52" y2="92.73" xlink:href="#名称未設定グラデーション_38"/><linearGradient id="名称未設定グラデーション_626" x1="57.89" y1="32.76" x2="61.42" y2="32.76" gradientUnits="userSpaceOnUse"><stop offset="0.5" stop-color="#e5004f"/><stop offset="1" stop-color="#ef857d"/></linearGradient><linearGradient id="名称未設定グラデーション_38-8" x1="39.17" y1="92.46" x2="15.81" y2="61.46" xlink:href="#名称未設定グラデーション_38"/><linearGradient id="名称未設定グラデーション_19-2" x1="25.29" y1="81.39" x2="25.29" y2="32.89" xlink:href="#名称未設定グラデーション_19"/><linearGradient id="名称未設定グラデーション_19-3" x1="51.52" y1="83.38" x2="51.52" y2="10.19" xlink:href="#名称未設定グラデーション_19"/><linearGradient id="名称未設定グラデーション_38-9" x1="25.01" y1="36.33" x2="25.01" y2="12.93" xlink:href="#名称未設定グラデーション_38"/><linearGradient id="名称未設定グラデーション_151" x1="83.05" y1="71.24" x2="83.05" y2="64.67" gradientUnits="userSpaceOnUse"><stop offset="0" stop-color="#c9caca"/><stop offset="0.75" stop-color="#f7f8f8"/></linearGradient><linearGradient id="名称未設定グラデーション_151-2" x1="19.99" y1="71.24" x2="19.99" y2="64.67" xlink:href="#名称未設定グラデーション_151"/><linearGradient id="名称未設定グラデーション_151-3" x1="79.18" y1="52.2" x2="79.18" y2="41.65" xlink:href="#名称未設定グラデーション_151"/><linearGradient id="名称未設定グラデーション_151-4" x1="24.46" y1="52.2" x2="24.46" y2="41.65" xlink:href="#名称未設定グラデーション_151"/><linearGradient id="名称未設定グラデーション_38-10" x1="51.52" y1="103.05" x2="51.52" y2="0" xlink:href="#名称未設定グラデーション_38"/></defs><g id="レイヤー_2" data-name="レイヤー 2"><g id="配置"><g id="_2-2" data-name="2-2"><path class="cls-1" d="M189.25,40.5h-.12L162.94,63.87h-.49L136.32,40.5h-.18V67H124.73V26.14h9.55l28.35,25.29h.13l28.35-25.29h9.55V67H189.25Z"/><path class="cls-2" d="M194.78,73.6a69.85,69.85,0,0,0,7.26.54c6.31,0,8.35-1.8,8.35-6.31V34.55H221V69.63c0,8.41-5.83,13-17.06,13a50.92,50.92,0,0,1-9.61-.9C194.48,79.13,194.6,76.18,194.78,73.6Zm20.9-53.16c4.33,0,6,1.74,6,4.38s-1.68,4.51-6,4.51-6-1.81-6-4.51S211.36,20.44,215.68,20.44Z"/><path class="cls-3" d="M266.26,50.53v.24l22,15.44V67h-15.2L258,56.24,242.89,67H227.7v-.78l22-15.44v-.24l-21.68-15.2v-.78h15.25L258,45.06l14.66-10.51h15.26v.78Z"/><path class="cls-4" d="M67.52,81.4c.55-4.84-.81-10.14-2.15-14.78-1.45-5.05-2.75-10-2.64-15,.08-4.13,1.05-11.69,6.6-15.81A16.21,16.21,0,0,1,76.62,33a13.08,13.08,0,0,1,1.53-.09,12.7,12.7,0,0,1,2.82.32c6.31,1.5,11.15,8.06,11.76,16a.61.61,0,0,1,0,.14c0,.72.05,1.43.05,2.14a41.59,41.59,0,0,1-.44,6,39.85,39.85,0,0,1-1.47,6.4,8.44,8.44,0,0,0-1.66-3.46A8.57,8.57,0,0,0,83,57.3h-.39c-3.53.21-6.69,3-7.87,7-.06.19-.12.39-.16.57A59.17,59.17,0,0,1,67.52,81.4Z"/><path class="cls-5" d="M62.33,91.27a14.66,14.66,0,0,0,2.47-2.64h0l.12-.13.21-.32.13-.13.09-.09h0c4.77-5.19,8.76-13,11.24-22h0l.06-.23.06-.25a4.84,4.84,0,0,1,.14-.49c.91-3.11,3.26-5.29,5.84-5.44H83a6.36,6.36,0,0,1,4.47,2.27c1.82,2.23,1.93,5.83.29,9.4l0,.09A41.42,41.42,0,0,1,62.33,91.27Z"/><path class="cls-6" d="M89.88,36.33A16.13,16.13,0,0,0,81.49,31a14.14,14.14,0,0,0-3.3-.37l-.86,0c-2.16-7.69-6-13.77-11.13-17.73A41.82,41.82,0,0,1,89.88,36.33Z"/><path class="cls-7" d="M63,81.51a11.58,11.58,0,0,1-9.75,11.38l-.59.07a5.46,5.46,0,0,1-.58,0,7.75,7.75,0,0,1-1.18,0,4.56,4.56,0,0,1-.54,0h-.06l-.56-.07a11.58,11.58,0,0,1-9-7.35,11.3,11.3,0,0,1-.74-4,11.46,11.46,0,0,1,1.12-5C42,74.5,43,72.45,44,70.47c2.45-4.87,5-9.91,5.65-15.52.47-3.87-.94-10.18-1.82-13.6a21.56,21.56,0,0,0-1.4-3.73,5.61,5.61,0,0,1,1.35-6.51,5.49,5.49,0,0,1,3.69-1.41c.22,0,.45,0,.68,0A5.58,5.58,0,0,1,57,34.41a5.9,5.9,0,0,1,0,1.32,4.18,4.18,0,0,1-.07.51,5.11,5.11,0,0,1-.45,1.42,20.32,20.32,0,0,0-1.38,3.69c-.88,3.41-2.29,9.73-1.83,13.6C54,60.56,56.55,65.6,59,70.47c1,2,2,4,2.9,6.07l0,0A11.36,11.36,0,0,1,63,81.51Z"/><path class="cls-8" d="M51.52,92.73l-.57,0-.53,0h-.09l-.36,0-.16,0A11.27,11.27,0,0,1,41,85.44a11,11,0,0,1-.73-3.93,11.17,11.17,0,0,1,1.1-4.85c.88-2,1.91-4.08,2.9-6.06,2.46-4.89,5-9.94,5.68-15.62.47-3.9-.94-10.26-1.82-13.71a22.31,22.31,0,0,0-1.42-3.78,5.11,5.11,0,0,1-.49-2.22A5.29,5.29,0,0,1,48,31.33,5.23,5.23,0,0,1,51.51,30a4.4,4.4,0,0,1,.64,0,5.29,5.29,0,0,1,4.59,4.42,5.91,5.91,0,0,1,0,1.25l-.06.48a5.68,5.68,0,0,1-.43,1.34,21.48,21.48,0,0,0-1.41,3.74c-.88,3.44-2.3,9.8-1.83,13.71.67,5.65,3.21,10.71,5.67,15.6,1,1.89,2,4,2.91,6.07l0,.07a11,11,0,0,1,1.07,4.79,11.28,11.28,0,0,1-9.5,11.09l-.13,0-.45,0-.56,0Z"/><path class="cls-9" d="M61.42,32.28a7.19,7.19,0,0,0-1.48.57,7.41,7.41,0,0,0-1.35.92,7,7,0,0,0-.7-1.92,6.08,6.08,0,0,1,2,0A5.62,5.62,0,0,1,61.42,32.28Z"/><path class="cls-10" d="M40.73,91.29A41.19,41.19,0,0,1,16.88,73.9l0-.05-.08-.12c-.55-.86-1-1.57-1.34-2.25v0c-1.73-3.6-1.67-7.38.16-9.63a6.43,6.43,0,0,1,4.48-2.27h.29c2.48.14,4.8,2.22,5.76,5.18v0c.06.21.11.41.16.6l.11.41A65,65,0,0,0,31.2,78.37,42.47,42.47,0,0,0,37.69,88h0l.09.1.14.15.28.43h0A15.24,15.24,0,0,0,40.73,91.29Z"/><path class="cls-11" d="M35.52,81.39a59.38,59.38,0,0,1-7-16.18,9.86,9.86,0,0,0-.29-1.1.76.76,0,0,0,0-.11c-1.28-3.86-4.32-6.49-7.75-6.69h-.42a8.39,8.39,0,0,0-7.91,6.58,41.23,41.23,0,0,1-1.91-12.42c0-.71,0-1.41.06-2.17v-.1c.6-7.91,5.44-14.48,11.77-16a12.33,12.33,0,0,1,2.8-.32,13.38,13.38,0,0,1,1.54.09,16.08,16.08,0,0,1,7.29,2.84C39.28,40,40.24,47.5,40.32,51.63A46.35,46.35,0,0,1,38.19,64.8l-.13.47c-.13.45-.25.9-.38,1.35C36.34,71.26,35,76.55,35.52,81.39Z"/><path class="cls-12" d="M64.87,83.38A13.06,13.06,0,0,0,65,81.51a13.26,13.26,0,0,0-1.31-5.79l0-.12c-.89-2-1.9-4-2.88-6-2.38-4.73-4.84-9.6-5.47-14.89-.3-2.58.19-4.89.64-7.81a38.74,38.74,0,0,1,1.65-7.69,10,10,0,0,1,2-3.39,7.11,7.11,0,0,1,5-1.93l2.72-.14-2.44-1.88a8.49,8.49,0,0,0-5.85-2,8.08,8.08,0,0,0-1.87.37,7.4,7.4,0,0,0-3.39-2.17l2.87-3.43a1.8,1.8,0,0,0,.45.06,2.35,2.35,0,1,0-2.35-2.35,2.25,2.25,0,0,0,.16.85l-2.16,2.58V20.92a2.35,2.35,0,1,0-3.48-2.06,2.34,2.34,0,0,0,1.22,2.06v4.85l-2.16-2.58a2.26,2.26,0,0,0,.17-.85,2.35,2.35,0,1,0-2.35,2.35,1.86,1.86,0,0,0,.45-.06l2.87,3.44a7.31,7.31,0,0,0-2.86,1.58,7.53,7.53,0,0,0-1.82,8.79A19.77,19.77,0,0,1,46,41.83c.85,3.29,2.2,9.35,1.77,12.88C47.12,60,44.67,64.85,42.3,69.56l-.12.24c-1,1.94-2,3.94-2.84,5.93A13.38,13.38,0,0,0,38,81.51a12.94,12.94,0,0,0,.14,1.86c-1.32-4.85.06-10.59,1.67-16.13l.53-1.88a48.21,48.21,0,0,0,2.2-13.77C42.49,47,41.39,38.7,35.07,34A19,19,0,0,0,28,30.93c3.6-12.39,11.91-20.13,22.28-20.71l.67,0h1.2l.66,0c10.37.58,18.68,8.32,22.28,20.71A18.92,18.92,0,0,0,68,34a14.3,14.3,0,0,0-1.13.93c-5.37,4.84-6.3,12.51-6.38,16.66C60.36,56.91,61.7,62,63.2,67.24c1.37,4.73,2.76,10.17,2,14.82C65.08,82.51,65,83,64.87,83.38Z"/><path class="cls-13" d="M13.16,36.33a41.87,41.87,0,0,1,23.69-23.4c-5.15,4-9,10.05-11.14,17.73l-.86,0a14.27,14.27,0,0,0-3.3.37A16.13,16.13,0,0,0,13.16,36.33Z"/><path class="cls-14" d="M83.05,64.67A3.29,3.29,0,1,1,79.76,68,3.29,3.29,0,0,1,83.05,64.67Z"/><path class="cls-15" d="M20,64.67A3.29,3.29,0,1,1,16.71,68,3.28,3.28,0,0,1,20,64.67Z"/><circle class="cls-16" cx="79.18" cy="46.93" r="5.28"/><circle class="cls-17" cx="24.46" cy="46.93" r="5.28"/><path class="cls-18" d="M58.77,34.91c0-.22,0-.44-.07-.67a6.44,6.44,0,0,0-1.1-2.75,6.3,6.3,0,0,1,1.92-.29,6,6,0,0,1,.95.07,6.61,6.61,0,0,1,3,1.31,6.67,6.67,0,0,0-2.76.75A6.48,6.48,0,0,0,58.77,34.91Z"/><path class="cls-19" d="M51.52,103.05A51.53,51.53,0,1,1,103,51.52,51.58,51.58,0,0,1,51.52,103.05Zm0-99.71A48.19,48.19,0,1,0,99.71,51.52,48.23,48.23,0,0,0,51.52,3.34Z"/></g></g></g></svg>