<?xml version="1.0" encoding="UTF-8"?>
<!DOCTYPE svg PUBLIC "-//W3C//DTD SVG 1.1//EN" "http://www.w3.org/Graphics/SVG/1.1/DTD/svg11.dtd">
<svg version="1.2" width="40mm" height="60mm" viewBox="0 0 4000 6000" preserveAspectRatio="xMidYMid" fill-rule="evenodd" stroke-width="28.222" stroke-linejoin="round" xmlns="http://www.w3.org/2000/svg" xmlns:ooo="http://xml.openoffice.org/svg/export" xmlns:xlink="http://www.w3.org/1999/xlink" xmlns:presentation="http://sun.com/xmlns/staroffice/presentation" xmlns:smil="http://www.w3.org/2001/SMIL20/" xmlns:anim="urn:oasis:names:tc:opendocument:xmlns:animation:1.0" xml:space="preserve">
 <defs class="ClipPathGroup">
  <clipPath id="presentation_clip_path" clipPathUnits="userSpaceOnUse">
   <rect x="0" y="0" width="4000" height="6000"/>
  </clipPath>
  <clipPath id="presentation_clip_path_shrink" clipPathUnits="userSpaceOnUse">
   <rect x="4" y="6" width="3992" height="5988"/>
  </clipPath>
 </defs>
 <defs class="TextShapeIndex">
  <g ooo:slide="id1" ooo:id-list="id3 id4 id5 id6 id7 id8 id9 id10 id11"/>
 </defs>
 <defs class="EmbeddedBulletChars">
  <g id="bullet-char-template-57356" transform="scale(0.00048828125,-0.00048828125)">
   <path d="M 580,1141 L 1163,571 580,0 -4,571 580,1141 Z"/>
  </g>
  <g id="bullet-char-template-57354" transform="scale(0.00048828125,-0.00048828125)">
   <path d="M 8,1128 L 1137,1128 1137,0 8,0 8,1128 Z"/>
  </g>
  <g id="bullet-char-template-10146" transform="scale(0.00048828125,-0.00048828125)">
   <path d="M 174,0 L 602,739 174,1481 1456,739 174,0 Z M 1358,739 L 309,1346 659,739 1358,739 Z"/>
  </g>
  <g id="bullet-char-template-10132" transform="scale(0.00048828125,-0.00048828125)">
   <path d="M 2015,739 L 1276,0 717,0 1260,543 174,543 174,936 1260,936 717,1481 1274,1481 2015,739 Z"/>
  </g>
  <g id="bullet-char-template-10007" transform="scale(0.00048828125,-0.00048828125)">
   <path d="M 0,-2 C -7,14 -16,27 -25,37 L 356,567 C 262,823 215,952 215,954 215,979 228,992 255,992 264,992 276,990 289,987 310,991 331,999 354,1012 L 381,999 492,748 772,1049 836,1024 860,1049 C 881,1039 901,1025 922,1006 886,937 835,863 770,784 769,783 710,716 594,584 L 774,223 C 774,196 753,168 711,139 L 727,119 C 717,90 699,76 672,76 641,76 570,178 457,381 L 164,-76 C 142,-110 111,-127 72,-127 30,-127 9,-110 8,-76 1,-67 -2,-52 -2,-32 -2,-23 -1,-13 0,-2 Z"/>
  </g>
  <g id="bullet-char-template-10004" transform="scale(0.00048828125,-0.00048828125)">
   <path d="M 285,-33 C 182,-33 111,30 74,156 52,228 41,333 41,471 41,549 55,616 82,672 116,743 169,778 240,778 293,778 328,747 346,684 L 369,508 C 377,444 397,411 428,410 L 1163,1116 C 1174,1127 1196,1133 1229,1133 1271,1133 1292,1118 1292,1087 L 1292,965 C 1292,929 1282,901 1262,881 L 442,47 C 390,-6 338,-33 285,-33 Z"/>
  </g>
  <g id="bullet-char-template-9679" transform="scale(0.00048828125,-0.00048828125)">
   <path d="M 813,0 C 632,0 489,54 383,161 276,268 223,411 223,592 223,773 276,916 383,1023 489,1130 632,1184 813,1184 992,1184 1136,1130 1245,1023 1353,916 1407,772 1407,592 1407,412 1353,268 1245,161 1136,54 992,0 813,0 Z"/>
  </g>
  <g id="bullet-char-template-8226" transform="scale(0.00048828125,-0.00048828125)">
   <path d="M 346,457 C 273,457 209,483 155,535 101,586 74,649 74,723 74,796 101,859 155,911 209,963 273,989 346,989 419,989 480,963 531,910 582,859 608,796 608,723 608,648 583,586 532,535 482,483 420,457 346,457 Z"/>
  </g>
  <g id="bullet-char-template-8211" transform="scale(0.00048828125,-0.00048828125)">
   <path d="M -4,459 L 1135,459 1135,606 -4,606 -4,459 Z"/>
  </g>
  <g id="bullet-char-template-61548" transform="scale(0.00048828125,-0.00048828125)">
   <path d="M 173,740 C 173,903 231,1043 346,1159 462,1274 601,1332 765,1332 928,1332 1067,1274 1183,1159 1299,1043 1357,903 1357,740 1357,577 1299,437 1183,322 1067,206 928,148 765,148 601,148 462,206 346,322 231,437 173,577 173,740 Z"/>
  </g>
 </defs>
 <g>
  <g id="id2" class="Master_Slide">
   <g id="bg-id2" class="Background"/>
   <g id="bo-id2" class="BackgroundObjects"/>
  </g>
 </g>
 <g class="SlideGroup">
  <g>
   <g id="container-id1">
    <g id="id1" class="Slide" clip-path="url(#presentation_clip_path)">
     <g class="Page">
      <g class="com.sun.star.drawing.CustomShape">
       <g id="id3">
        <rect class="BoundingBox" stroke="none" fill="none" x="975" y="975" width="2052" height="4052"/>
        <path fill="rgb(255,255,255)" stroke="none" d="M 1333,1000 L 1334,1000 C 1275,1000 1217,1015 1167,1045 1116,1074 1074,1116 1045,1167 1015,1217 1000,1275 1000,1334 L 1000,4667 1000,4668 C 1000,4726 1015,4784 1045,4834 1074,4885 1116,4927 1167,4956 1217,4986 1275,5001 1334,5001 L 2667,5000 2668,5001 C 2726,5001 2784,4986 2834,4956 2885,4927 2927,4885 2956,4834 2986,4784 3001,4726 3001,4668 L 3001,1333 3001,1334 3001,1334 C 3001,1275 2986,1217 2956,1167 2927,1116 2885,1074 2834,1045 2784,1015 2726,1000 2668,1000 L 1333,1000 Z"/>
        <path fill="none" stroke="rgb(0,0,0)" stroke-width="50" stroke-linejoin="round" d="M 1333,1000 L 1334,1000 C 1275,1000 1217,1015 1167,1045 1116,1074 1074,1116 1045,1167 1015,1217 1000,1275 1000,1334 L 1000,4667 1000,4668 C 1000,4726 1015,4784 1045,4834 1074,4885 1116,4927 1167,4956 1217,4986 1275,5001 1334,5001 L 2667,5000 2668,5001 C 2726,5001 2784,4986 2834,4956 2885,4927 2927,4885 2956,4834 2986,4784 3001,4726 3001,4668 L 3001,1333 3001,1334 3001,1334 C 3001,1275 2986,1217 2956,1167 2927,1116 2885,1074 2834,1045 2784,1015 2726,1000 2668,1000 L 1333,1000 Z"/>
       </g>
      </g>
      <g class="com.sun.star.drawing.CustomShape">
       <g id="id4">
        <rect class="BoundingBox" stroke="none" fill="none" x="1499" y="2499" width="254" height="254"/>
        <path fill="rgb(0,0,0)" stroke="none" d="M 1751,2626 C 1751,2648 1745,2669 1734,2688 1723,2707 1707,2723 1688,2734 1669,2745 1648,2751 1626,2751 1603,2751 1582,2745 1563,2734 1544,2723 1528,2707 1517,2688 1506,2669 1500,2648 1500,2626 1500,2603 1506,2582 1517,2563 1528,2544 1544,2528 1563,2517 1582,2506 1603,2500 1626,2500 1648,2500 1669,2506 1688,2517 1707,2528 1723,2544 1734,2563 1745,2582 1751,2603 1751,2626 L 1751,2626 Z"/>
        <path fill="none" stroke="rgb(0,0,0)" d="M 1751,2626 C 1751,2648 1745,2669 1734,2688 1723,2707 1707,2723 1688,2734 1669,2745 1648,2751 1626,2751 1603,2751 1582,2745 1563,2734 1544,2723 1528,2707 1517,2688 1506,2669 1500,2648 1500,2626 1500,2603 1506,2582 1517,2563 1528,2544 1544,2528 1563,2517 1582,2506 1603,2500 1626,2500 1648,2500 1669,2506 1688,2517 1707,2528 1723,2544 1734,2563 1745,2582 1751,2603 1751,2626 Z"/>
       </g>
      </g>
      <g class="com.sun.star.drawing.CustomShape">
       <g id="id5">
        <rect class="BoundingBox" stroke="none" fill="none" x="2249" y="2499" width="254" height="254"/>
        <path fill="rgb(0,0,0)" stroke="none" d="M 2501,2626 C 2501,2648 2495,2669 2484,2688 2473,2707 2457,2723 2438,2734 2419,2745 2398,2751 2376,2751 2353,2751 2332,2745 2313,2734 2294,2723 2278,2707 2267,2688 2256,2669 2250,2648 2250,2626 2250,2603 2256,2582 2267,2563 2278,2544 2294,2528 2313,2517 2332,2506 2353,2500 2376,2500 2398,2500 2419,2506 2438,2517 2457,2528 2473,2544 2484,2563 2495,2582 2501,2603 2501,2626 L 2501,2626 Z"/>
        <path fill="none" stroke="rgb(0,0,0)" d="M 2501,2626 C 2501,2648 2495,2669 2484,2688 2473,2707 2457,2723 2438,2734 2419,2745 2398,2751 2376,2751 2353,2751 2332,2745 2313,2734 2294,2723 2278,2707 2267,2688 2256,2669 2250,2648 2250,2626 2250,2603 2256,2582 2267,2563 2278,2544 2294,2528 2313,2517 2332,2506 2353,2500 2376,2500 2398,2500 2419,2506 2438,2517 2457,2528 2473,2544 2484,2563 2495,2582 2501,2603 2501,2626 Z"/>
       </g>
      </g>
      <g class="com.sun.star.drawing.CustomShape">
       <g id="id6">
        <rect class="BoundingBox" stroke="none" fill="none" x="1499" y="3249" width="254" height="254"/>
        <path fill="rgb(0,0,0)" stroke="none" d="M 1751,3376 C 1751,3398 1745,3419 1734,3438 1723,3457 1707,3473 1688,3484 1669,3495 1648,3501 1626,3501 1603,3501 1582,3495 1563,3484 1544,3473 1528,3457 1517,3438 1506,3419 1500,3398 1500,3376 1500,3353 1506,3332 1517,3313 1528,3294 1544,3278 1563,3267 1582,3256 1603,3250 1626,3250 1648,3250 1669,3256 1688,3267 1707,3278 1723,3294 1734,3313 1745,3332 1751,3353 1751,3376 L 1751,3376 Z"/>
        <path fill="none" stroke="rgb(0,0,0)" d="M 1751,3376 C 1751,3398 1745,3419 1734,3438 1723,3457 1707,3473 1688,3484 1669,3495 1648,3501 1626,3501 1603,3501 1582,3495 1563,3484 1544,3473 1528,3457 1517,3438 1506,3419 1500,3398 1500,3376 1500,3353 1506,3332 1517,3313 1528,3294 1544,3278 1563,3267 1582,3256 1603,3250 1626,3250 1648,3250 1669,3256 1688,3267 1707,3278 1723,3294 1734,3313 1745,3332 1751,3353 1751,3376 Z"/>
       </g>
      </g>
      <g class="com.sun.star.drawing.CustomShape">
       <g id="id7">
        <rect class="BoundingBox" stroke="none" fill="none" x="2249" y="3249" width="254" height="254"/>
        <path fill="rgb(0,0,0)" stroke="none" d="M 2501,3376 C 2501,3398 2495,3419 2484,3438 2473,3457 2457,3473 2438,3484 2419,3495 2398,3501 2376,3501 2353,3501 2332,3495 2313,3484 2294,3473 2278,3457 2267,3438 2256,3419 2250,3398 2250,3376 2250,3353 2256,3332 2267,3313 2278,3294 2294,3278 2313,3267 2332,3256 2353,3250 2376,3250 2398,3250 2419,3256 2438,3267 2457,3278 2473,3294 2484,3313 2495,3332 2501,3353 2501,3376 L 2501,3376 Z"/>
        <path fill="none" stroke="rgb(0,0,0)" d="M 2501,3376 C 2501,3398 2495,3419 2484,3438 2473,3457 2457,3473 2438,3484 2419,3495 2398,3501 2376,3501 2353,3501 2332,3495 2313,3484 2294,3473 2278,3457 2267,3438 2256,3419 2250,3398 2250,3376 2250,3353 2256,3332 2267,3313 2278,3294 2294,3278 2313,3267 2332,3256 2353,3250 2376,3250 2398,3250 2419,3256 2438,3267 2457,3278 2473,3294 2484,3313 2495,3332 2501,3353 2501,3376 Z"/>
       </g>
      </g>
      <g class="com.sun.star.drawing.CustomShape">
       <g id="id8">
        <rect class="BoundingBox" stroke="none" fill="none" x="1499" y="1749" width="254" height="254"/>
        <path fill="rgb(0,0,0)" stroke="none" d="M 1751,1876 C 1751,1898 1745,1919 1734,1938 1723,1957 1707,1973 1688,1984 1669,1995 1648,2001 1626,2001 1603,2001 1582,1995 1563,1984 1544,1973 1528,1957 1517,1938 1506,1919 1500,1898 1500,1876 1500,1853 1506,1832 1517,1813 1528,1794 1544,1778 1563,1767 1582,1756 1603,1750 1626,1750 1648,1750 1669,1756 1688,1767 1707,1778 1723,1794 1734,1813 1745,1832 1751,1853 1751,1875 L 1751,1876 Z"/>
        <path fill="none" stroke="rgb(0,0,0)" d="M 1751,1876 C 1751,1898 1745,1919 1734,1938 1723,1957 1707,1973 1688,1984 1669,1995 1648,2001 1626,2001 1603,2001 1582,1995 1563,1984 1544,1973 1528,1957 1517,1938 1506,1919 1500,1898 1500,1876 1500,1853 1506,1832 1517,1813 1528,1794 1544,1778 1563,1767 1582,1756 1603,1750 1626,1750 1648,1750 1669,1756 1688,1767 1707,1778 1723,1794 1734,1813 1745,1832 1751,1853 1751,1875 L 1751,1876 Z"/>
       </g>
      </g>
      <g class="com.sun.star.drawing.CustomShape">
       <g id="id9">
        <rect class="BoundingBox" stroke="none" fill="none" x="2249" y="1749" width="254" height="254"/>
        <path fill="rgb(0,0,0)" stroke="none" d="M 2501,1876 C 2501,1898 2495,1919 2484,1938 2473,1957 2457,1973 2438,1984 2419,1995 2398,2001 2376,2001 2353,2001 2332,1995 2313,1984 2294,1973 2278,1957 2267,1938 2256,1919 2250,1898 2250,1876 2250,1853 2256,1832 2267,1813 2278,1794 2294,1778 2313,1767 2332,1756 2353,1750 2376,1750 2398,1750 2419,1756 2438,1767 2457,1778 2473,1794 2484,1813 2495,1832 2501,1853 2501,1875 L 2501,1876 Z"/>
        <path fill="none" stroke="rgb(0,0,0)" d="M 2501,1876 C 2501,1898 2495,1919 2484,1938 2473,1957 2457,1973 2438,1984 2419,1995 2398,2001 2376,2001 2353,2001 2332,1995 2313,1984 2294,1973 2278,1957 2267,1938 2256,1919 2250,1898 2250,1876 2250,1853 2256,1832 2267,1813 2278,1794 2294,1778 2313,1767 2332,1756 2353,1750 2376,1750 2398,1750 2419,1756 2438,1767 2457,1778 2473,1794 2484,1813 2495,1832 2501,1853 2501,1875 L 2501,1876 Z"/>
       </g>
      </g>
      <g class="com.sun.star.drawing.CustomShape">
       <g id="id10">
        <rect class="BoundingBox" stroke="none" fill="none" x="1499" y="3999" width="254" height="254"/>
        <path fill="rgb(0,0,0)" stroke="none" d="M 1751,4126 C 1751,4148 1745,4169 1734,4188 1723,4207 1707,4223 1688,4234 1669,4245 1648,4251 1626,4251 1603,4251 1582,4245 1563,4234 1544,4223 1528,4207 1517,4188 1506,4169 1500,4148 1500,4126 1500,4103 1506,4082 1517,4063 1528,4044 1544,4028 1563,4017 1582,4006 1603,4000 1626,4000 1648,4000 1669,4006 1688,4017 1707,4028 1723,4044 1734,4063 1745,4082 1751,4103 1751,4126 L 1751,4126 Z"/>
        <path fill="none" stroke="rgb(0,0,0)" d="M 1751,4126 C 1751,4148 1745,4169 1734,4188 1723,4207 1707,4223 1688,4234 1669,4245 1648,4251 1626,4251 1603,4251 1582,4245 1563,4234 1544,4223 1528,4207 1517,4188 1506,4169 1500,4148 1500,4126 1500,4103 1506,4082 1517,4063 1528,4044 1544,4028 1563,4017 1582,4006 1603,4000 1626,4000 1648,4000 1669,4006 1688,4017 1707,4028 1723,4044 1734,4063 1745,4082 1751,4103 1751,4126 Z"/>
       </g>
      </g>
      <g class="com.sun.star.drawing.CustomShape">
       <g id="id11">
        <rect class="BoundingBox" stroke="none" fill="none" x="2249" y="3999" width="254" height="254"/>
        <path fill="rgb(0,0,0)" stroke="none" d="M 2501,4126 C 2501,4148 2495,4169 2484,4188 2473,4207 2457,4223 2438,4234 2419,4245 2398,4251 2376,4251 2353,4251 2332,4245 2313,4234 2294,4223 2278,4207 2267,4188 2256,4169 2250,4148 2250,4126 2250,4103 2256,4082 2267,4063 2278,4044 2294,4028 2313,4017 2332,4006 2353,4000 2376,4000 2398,4000 2419,4006 2438,4017 2457,4028 2473,4044 2484,4063 2495,4082 2501,4103 2501,4126 L 2501,4126 Z"/>
        <path fill="none" stroke="rgb(0,0,0)" d="M 2501,4126 C 2501,4148 2495,4169 2484,4188 2473,4207 2457,4223 2438,4234 2419,4245 2398,4251 2376,4251 2353,4251 2332,4245 2313,4234 2294,4223 2278,4207 2267,4188 2256,4169 2250,4148 2250,4126 2250,4103 2256,4082 2267,4063 2278,4044 2294,4028 2313,4017 2332,4006 2353,4000 2376,4000 2398,4000 2419,4006 2438,4017 2457,4028 2473,4044 2484,4063 2495,4082 2501,4103 2501,4126 Z"/>
       </g>
      </g>
     </g>
    </g>
   </g>
  </g>
 </g>
</svg>